<svg xmlns="http://www.w3.org/2000/svg" enable-background="new 0 0 98 98" viewBox="0 0 98 98" id="farmhouse"><path d="M81.2026 50.2067l-.3691 1.9658c4.2432.7974 8.6084 2.5835 13.3447 5.4614l1.0391-1.709C90.271 52.9196 85.687 51.0495 81.2026 50.2067zM94.8234 39.9415L79.6801 12.7614h1.964v-2h-3.0782L72.9331.6515 61.3372 16.6833c-1.5391-2.7681-4.4567-4.5337-7.739-4.5337-3.0034 0-5.7209 1.5129-7.3444 3.9454L36.1245.6965 5.3297 47.0089c-2.2338.4241-3.5353.7929-3.5948.8106l.5664 1.918c.2751-.0805 27.2963-7.7568 52.2178 7.2508-5.8388 3.4838-11.4263 7.3003-17.873 10.1354-16.4307 7.2305-33.7637-9.0615-33.9365-9.2271L1.3267 59.342c9.1818 8.782 23.8285 15.0235 36.124 9.6128 11.9983-5.2775 21.2369-13.9463 32.0674-16.5122l-.4609-1.9463c-4.4149 1.046-8.4978 3.0162-12.5721 5.3464-11.2518-7.0406-22.9836-9.5098-32.6891-10.0278 6.8364-5.1751 19.6204-11.2463 38.4263-5.7702 20.1191 5.8564 28.6982 4.6602 32.3516 2.623 1.9229-1.0718 2.3428-2.2896 2.4082-2.5229l-1.916-.5713C95.0623 39.5833 94.9989 39.7273 94.8234 39.9415zM53.5981 14.1496c2.8759 0 5.376 1.7558 6.39 4.3987l-6.3477 8.7758-6.1615-9.3666C48.6381 15.6352 50.9785 14.1496 53.5981 14.1496zM20.7305 45.7178c-5.0538-.0709-9.4271.3468-12.6937.8328l28.078-42.2282L57.511 36.8491C39.0073 33.2485 26.745 40.5683 20.7305 45.7178zM62.7808 38.1247c-.8354-.2434-1.6556-.4576-2.4685-.6581l-5.496-8.355L72.7144 4.3674l20.4775 36.757C90.1404 42.5911 82.324 43.8129 62.7808 38.1247zM75.0151 73.049c2.7568 0 5-2.2432 5-5s-2.2432-5-5-5-5 2.2432-5 5S72.2583 73.049 75.0151 73.049zM75.0151 65.049c1.6543 0 3 1.3457 3 3s-1.3457 3-3 3-3-1.3457-3-3S73.3608 65.049 75.0151 65.049z"></path><rect width="2.394" height="2" x="67.688" y="71.182"></rect><rect width="4" height="2" x="80.543" y="71.182"></rect><rect width="2.001" height="17.618" x="22.739" y="19.543" transform="rotate(-146.387 23.74 28.352)"></rect><rect width="2.001" height="3.078" x="30.615" y="14.969" transform="rotate(-146.387 31.615 16.508)"></rect><rect width="2.001" height="2.838" x="75.734" y="16.329" transform="rotate(-29.12 76.732 17.751)"></rect><rect width="10.213" height="2.001" x="76.247" y="25.037" transform="rotate(-119.123 81.352 26.036)"></rect><path d="M27.4683,10.6047l1.7129-1.0332C26.9761,5.9172,22.8745,4.2409,18.728,5.3c-3.8018,0.9717-6.4707,3.9321-7.0371,7.6914
		c-3.4006-0.1509-6.5632,2.3213-7.085,5.9023H2.6411v2h9.1445v-2H6.6313c0.5474-2.6361,3.1374-4.3467,5.7549-3.8091l1.1504,0.2358
		l0.0498-1.1729c0.1426-3.3589,2.3555-6.0713,5.6377-6.9102C22.4966,6.4011,25.731,7.7243,27.4683,10.6047z"></path><rect width="6.121" height="2" x="13.998" y="18.894"></rect><path d="M9.5581,75.3713l-4.3105,5.208v5.0669H1.0181v5.8203h4.2295v3.8799H2.0181v2c30.8893,0.0012,62.3281,0.0041,94,0v-2H91.938
		V72.1326l3.4199,3.0092l1.3203-1.502L75.3081,54.8361L53.939,73.6398l1.3203,1.5015l3.4287-3.017v23.222h-5.4502v-3.8799h4.2314
		v-5.8203h-4.2314v-5.0664l-4.3105-5.21l-4.2988,5.2104v5.0659h-4.5107v-5.0664l-4.3096-5.2085l-4.3105,5.208v5.0669h-4.5098
		v-5.0664l-4.3105-5.21l-4.2988,5.2104v5.0659h-4.5107v-5.0664L9.5581,75.3713z M79.5435,95.3464h-8.4609v-18.249h8.4609V95.3464z
		 M60.688,93.6857h3v-2h-3v-3.709h3v-2h-3v-4.9868h3v-2h-3v-5.8081h3v-2h-3v-0.8173l14.6201-12.8644L89.938,70.3729v0.809h-1.3945v2
		h1.3945v5.8081h-1.3945v2h1.3945v4.9868h-1.3945v2h1.3945v3.709h-1.3945v2h1.3945v1.6606h-8.3945v-1.6606h3v-2h-3v-3.709h3v-2h-3
		v-4.9868h3v-2h-3v-3.8926H69.0825v3.8926H67.688v2h1.3945v4.9868H67.688v2h1.3945v3.709H67.688v2h1.3945v1.6606H60.688V93.6857z
		 M7.2476,81.3l2.3105-2.792l2.3096,2.7915v4.3467H7.2476V81.3z M7.2476,91.4694h4.6201v3.877H7.2476V91.4694z M13.8677,95.3464
		v-3.8799h4.5107v3.8799H13.8677z M24.9878,95.3464h-4.6094v-3.877h4.6094V95.3464z M26.9878,95.3464v-3.8799h4.5098v3.8799H26.9878
		z M38.1177,95.3464h-4.6201v-3.877h4.6201V95.3464z M46.6284,95.3464v-3.877h4.6094v3.877H46.6284z M44.6284,95.3464h-4.5107
		v-3.8799h4.5107V95.3464z M46.6284,81.299l2.3008-2.7896l2.3086,2.79v4.3467h-4.6094V81.299z M33.4976,81.3l2.3105-2.792
		l2.3096,2.7915v4.3467h-4.6201V81.3z M20.3784,81.299l2.3008-2.7896l2.3086,2.79v4.3467h-4.6094V81.299z M55.4692,87.6462v1.8203
		H3.0181v-1.8203C58.9146,87.6481,53.1545,87.6469,55.4692,87.6462z"></path><rect width="1.999" height="4.033" x="50.285" y="5.361" transform="rotate(170.979 51.283 7.378)"></rect><rect width="2" height="4.033" x="45.676" y="6.95" transform="rotate(150.954 46.677 8.968)"></rect><rect width="4.033" height="2" x="58.694" y="8.205" transform="rotate(120.969 60.706 9.204)"></rect><rect width="4.033" height="2" x="54.142" y="6.46" transform="rotate(100.971 56.16 7.462)"></rect><path d="M83.104,12.7614h10.6289v-2h-0.8943c-0.477-2.1807-2.4334-3.6507-4.4993-3.6631c-0.4355-2.1401-1.9297-3.8501-4.082-4.5898
		c-2.5039-0.8613-5.1182-0.1396-6.8154,1.8862l1.5313,1.2852c1.3799-1.6436,3.2949-1.7393,4.6338-1.2803
		c1.333,0.4585,2.7842,1.7095,2.8613,3.8462l0.0449,1.2612l1.2178-0.332c1.1179-0.3047,2.4763,0.2998,3.0066,1.5864H83.104V12.7614z
		"></path><rect width="2" height="2" x="17.961" y="58.034"></rect><rect width="2" height="2" x="21.961" y="58.034"></rect><rect width="2" height="2" x="29.961" y="58.034"></rect><rect width="2" height="2" x="25.961" y="58.034"></rect><rect width="2" height="2" x="58.613" y="44.608"></rect><rect width="2" height="2" x="62.613" y="44.608"></rect><rect width="2" height="2" x="54.613" y="44.608"></rect><rect width="2" height="2" x="50.613" y="44.608"></rect></svg>