<svg xmlns="http://www.w3.org/2000/svg" width="24" height="24" fill="none" viewBox="0 0 24 24" id="planning"><path fill="#000" fill-rule="evenodd" d="M3.5 4C3.5 2.61929 4.61929 1.5 6 1.5H18C19.3807 1.5 20.5 2.61929 20.5 4V16.9577C20.5 17.2339 20.2761 17.4577 20 17.4577C19.7239 17.4577 19.5 17.2339 19.5 16.9577V4C19.5 3.17157 18.8284 2.5 18 2.5H6C5.17157 2.5 4.5 3.17157 4.5 4V20C4.5 20.8284 5.17157 21.5 6 21.5H18C18.8284 21.5 19.5 20.8284 19.5 20C19.5 19.7239 19.7239 19.5 20 19.5C20.2761 19.5 20.5 19.7239 20.5 20C20.5 21.3807 19.3807 22.5 18 22.5H6C4.61929 22.5 3.5 21.3807 3.5 20V4Z" clip-rule="evenodd"></path><path fill="#000" fill-rule="evenodd" d="M7.5 2C7.5 1.72386 7.72386 1.5 8 1.5H16C16.2761 1.5 16.5 1.72386 16.5 2V3C16.5 4.38071 15.3807 5.5 14 5.5H12.8344C12.5582 5.5 12.3344 5.27614 12.3344 5 12.3344 4.72386 12.5582 4.5 12.8344 4.5H14C14.8284 4.5 15.5 3.82843 15.5 3V2.5H8.5V3C8.5 3.82843 9.17157 4.5 10 4.5 10.2761 4.5 10.5 4.72386 10.5 5 10.5 5.27614 10.2761 5.5 10 5.5 8.61929 5.5 7.5 4.38071 7.5 3V2zM12.5 17C12.5 16.7239 12.7239 16.5 13 16.5H17C17.2761 16.5 17.5 16.7239 17.5 17 17.5 17.2761 17.2761 17.5 17 17.5H13C12.7239 17.5 12.5 17.2761 12.5 17zM12.5 9C12.5 8.72386 12.7239 8.5 13 8.5H17C17.2761 8.5 17.5 8.72386 17.5 9 17.5 9.27614 17.2761 9.5 17 9.5H13C12.7239 9.5 12.5 9.27614 12.5 9zM7.30679 7.58579C7.50205 7.39053 7.81863 7.39053 8.01389 7.58579L10.1352 9.70711C10.3305 9.90237 10.3305 10.219 10.1352 10.4142 9.93995 10.6095 9.62337 10.6095 9.42811 10.4142L7.30679 8.2929C7.11152 8.09764 7.11152 7.78105 7.30679 7.58579z" clip-rule="evenodd"></path><path fill="#000" fill-rule="evenodd" d="M10.1352 7.58579C9.93997 7.39053 9.62339 7.39053 9.42812 7.58579L7.3068 9.70711C7.11154 9.90237 7.11154 10.219 7.3068 10.4142 7.50207 10.6095 7.81865 10.6095 8.01391 10.4142L10.1352 8.2929C10.3305 8.09764 10.3305 7.78105 10.1352 7.58579zM10.7777 14.2594C10.9958 14.4288 11.0353 14.7429 10.8659 14.961L8.81728 17.5987C8.72605 17.7162 8.58725 17.7869 8.43859 17.7918 8.28993 17.7966 8.14685 17.735 8.0482 17.6236L6.59682 15.9859C6.41366 15.7793 6.43272 15.4633 6.63939 15.2801 6.84605 15.097 7.16206 15.116 7.34521 15.3227L8.39703 16.5095 10.0761 14.3476C10.2455 14.1295 10.5596 14.09 10.7777 14.2594z" clip-rule="evenodd"></path></svg>